Coordinates
version=1
nRows=16
nColumns=40
inDegrees=yes

Units are S.I. units (second, meters, Newtons, ...)
Angles are in degrees.

endheader
time	pelvis_tilt	pelvis_list	pelvis_rotation	pelvis_tx	pelvis_ty	pelvis_tz	hip_flexion_r	hip_adduction_r	hip_rotation_r	knee_angle_r	knee_angle_r_beta	ankle_angle_r	subtalar_angle_r	mtp_angle_r	hip_flexion_l	hip_adduction_l	hip_rotation_l	knee_angle_l	knee_angle_l_beta	ankle_angle_l	subtalar_angle_l	mtp_angle_l	lumbar_extension	lumbar_bending	lumbar_rotation	arm_flex_r	arm_add_r	arm_rot_r	elbow_flex_r	pro_sup_r	wrist_flex_r	wrist_dev_r	arm_flex_l	arm_add_l	arm_rot_l	elbow_flex_l	pro_sup_l	wrist_flex_l	wrist_dev_l
     22.85428571	     -3.86784682	     -6.59736328	     -4.64000205	      0.98537764	      0.91406486	      0.40269413	     26.50598501	     -4.61595093	     -3.00467356	     62.02860752	     62.02860752	      5.53829506	    -15.16057206	      1.24619393	     19.40545123	     -5.59735282	     -5.65017625	     34.79975034	     34.79975034	     21.62102917	    -17.85593438	      8.58105542	    -11.36450137	      6.15727970	      2.58446534	      7.43812477	    -12.84600573	    -11.45874176	     27.97856706	     46.72547882	      0.00000000	      0.00000000	     28.26725851	    -16.41939917	      1.70840429	     42.54250413	     46.83082737	      0.00000000	      0.00000000
     22.87357143	     -3.78627512	     -6.65282286	     -5.10930293	      0.98411786	      0.91509698	      0.40234534	     27.28934694	     -4.41564274	     -3.05349927	     60.33008024	     60.33008024	      5.94251484	    -15.37748014	      0.96958519	     18.57456099	     -5.67300162	     -6.14882331	     34.20828371	     34.20828371	     21.76251155	    -17.75960626	      8.50972446	    -11.46158657	      6.36277011	      2.67739126	      4.84363914	    -12.87889752	    -12.00524346	     26.66632413	     46.79630574	      0.00000000	      0.00000000	     28.73156217	    -16.40377700	      0.58363024	     44.36844199	     46.95907641	      0.00000000	      0.00000000
     22.89285714	     -3.85191653	     -6.67443132	     -5.57925718	      0.98278565	      0.91646422	      0.40215614	     27.94405058	     -4.27028637	     -3.30099167	     57.76660307	     57.76660307	      5.74597680	    -15.55056268	     -0.84722996	     17.75308105	     -5.72367514	     -6.71612536	     33.29392167	     33.29392167	     21.52751075	    -17.66276764	      7.80486943	    -11.36201900	      6.59258764	      1.89710098	      2.91343351	    -12.56588758	    -13.78495265	     25.55140078	     46.95403662	      0.00000000	      0.00000000	     28.27060826	    -16.74916315	     -2.36640370	     47.32986407	     47.23798082	      0.00000000	      0.00000000
     22.91214286	     -3.97679064	     -6.66797668	     -6.09198335	      0.98136430	      0.91816208	      0.40233027	     28.45501226	     -4.05572478	     -3.59025975	     54.62272555	     54.62272555	      6.06932333	    -15.25781698	     -1.32695445	     16.89281665	     -5.74752998	     -7.30952463	     32.19625549	     32.19625549	     21.42160310	    -17.47198002	      7.70119796	    -11.23679552	      6.76938942	      2.02342948	      0.52306830	    -12.62776863	    -14.20064745	     24.43399591	     47.01064379	      0.00000000	      0.00000000	     28.85303577	    -16.80866510	     -2.95555168	     48.69139565	     47.29949293	      0.00000000	      0.00000000
     22.93142857	     -4.21972876	     -6.68044380	     -6.55534021	      0.97982329	      0.91997653	      0.40276316	     28.83533026	     -3.76299596	     -4.03356016	     50.91235524	     50.91235524	      6.49147693	    -14.55246403	     -1.31296123	     16.10981247	     -5.80623515	     -7.90170017	     30.96987967	     30.96987967	     21.29672958	    -17.12774925	      7.79755968	    -10.98216144	      7.02015562	      1.76018210	     -1.55604850	    -12.62177099	    -14.36567376	     23.72007467	     47.03488177	      0.00000000	      0.00000000	     29.34098083	    -17.29302980	     -3.30925051	     49.51550328	     47.34071080	      0.00000000	      0.00000000
     22.95071429	     -4.26786188	     -6.61803805	     -7.07138368	      0.97838795	      0.92213832	      0.40357389	     28.73657736	     -3.50990728	     -4.52057446	     46.67726219	     46.67726219	      6.62188595	    -13.24001520	     -2.11151165	     14.96378653	     -5.77272564	     -8.64082476	     29.47698384	     29.47698384	     20.95009235	    -16.79116020	      7.38128832	    -11.06298652	      7.02844556	      2.09000792	     -3.86873344	    -12.60671318	    -14.79038567	     23.24395964	     47.06742646	      0.00000000	      0.00000000	     29.87945129	    -17.38507787	     -4.08496485	     51.89924308	     47.43203396	      0.00000000	      0.00000000
     22.97000000	     -4.52972104	     -6.58769248	     -7.50350866	      0.97689002	      0.92383390	      0.40461051	     28.54775732	     -3.12340373	     -5.10586661	     41.90495481	     41.90495481	      5.92933352	    -11.95165112	     -4.62761591	     14.07123160	     -5.81460563	     -9.36611377	     27.94604099	     27.94604099	     20.00267733	    -16.53907430	      5.51270756	    -10.90613135	      7.17015429	      1.53675690	     -5.82921026	    -12.44760385	    -16.03912543	     24.05004938	     47.10445270	      0.00000000	      0.00000000	     29.28408897	    -18.07921631	     -5.78579844	     55.49176822	     47.57974793	      0.00000000	      0.00000000
     22.98928571	     -4.73451879	     -6.47000752	     -7.91012405	      0.97543423	      0.92534691	      0.40587422	     28.22484299	     -2.80376638	     -5.73647871	     37.23176447	     37.23176447	      5.99578647	     -9.43715895	     -4.67182505	     13.18918279	     -5.74059651	    -10.03893736	     26.56917565	     26.56917565	     19.68876141	    -16.08536097	      5.15246427	    -10.75216658	      7.17640446	      1.62181789	     -7.69656718	    -12.38338750	    -16.38399781	     23.80453918	     47.11675623	      0.00000000	      0.00000000	     29.89997079	    -18.39334802	     -6.23172902	     57.04345187	     47.62510882	      0.00000000	      0.00000000
     23.00857143	     -4.89912378	     -6.34908480	     -8.25149057	      0.97407258	      0.92645781	      0.40740182	     27.73727467	     -2.43101994	     -6.35253132	     32.63957851	     32.63957851	      6.05961376	     -6.49548423	     -4.04613915	     12.33910257	     -5.67577388	    -10.67628394	     25.31592803	     25.31592803	     19.22603476	    -15.66900035	      4.22407954	    -10.66485734	      7.16865533	      1.46140904	     -9.49337631	    -12.23861443	    -16.92508522	     24.53687789	     47.09167761	      0.00000000	      0.00000000	     30.17152027	    -18.97291478	     -6.87077054	     59.21983383	     47.68336107	      0.00000000	      0.00000000
     23.02785714	     -4.97842497	     -6.15379761	     -8.55437322	      0.97289043	      0.92718319	      0.40913727	     27.12281374	     -2.10955759	     -6.90249018	     28.33416975	     28.33416975	      6.01489779	     -3.32344238	     -3.13770932	     11.50655249	     -5.53613071	    -11.30152405	     24.28898556	     24.28898556	     19.14008739	    -15.11364809	      3.95240746	    -10.60193499	      7.04863866	      1.48972130	    -10.94594925	    -12.09894527	    -17.07603016	     24.57631034	     47.07965827	      0.00000000	      0.00000000	     30.90437359	    -19.39530375	     -7.19303173	     60.50811165	     47.72441265	      0.00000000	      0.00000000
     23.04714286	     -5.05811322	     -5.97602874	     -8.79201434	      0.97189928	      0.92735460	      0.41110819	     26.49183040	     -1.72947329	     -7.32491820	     24.44077117	     24.44077117	      5.79320838	     -0.46331628	     -2.01442295	     10.81521961	     -5.43006284	    -11.78259977	     23.54408916	     23.54408916	     19.14945642	    -14.68319699	      3.64180180	    -10.47024285	      6.96161015	      1.43632598	    -12.22337033	    -12.00977467	    -17.22054476	     24.73428666	     47.06593987	      0.00000000	      0.00000000	     31.53087375	    -19.85866216	     -7.49984202	     61.67085044	     47.76515852	      0.00000000	      0.00000000
     23.06642857	     -5.09013387	     -5.61182171	     -9.00828007	      0.97114378	      0.92694316	      0.41310520	     26.11629230	     -1.74974369	     -8.15333651	     21.62484899	     21.62484899	      6.14072859	      3.28492975	      0.20830165	     10.14561419	     -5.14103325	    -12.37913765	     22.89428748	     22.89428748	     18.96619262	    -14.22951147	      2.49981072	    -10.39299724	      6.65335289	      1.34698248	    -13.65097807	    -11.78975994	    -17.58083409	     26.25076904	     46.99333910	      0.00000000	      0.00000000	     31.74522232	    -20.29375310	     -8.17452516	     64.00180252	     47.84276310	      0.00000000	      0.00000000
     23.08571429	     -5.15505638	     -5.35060218	     -9.17893284	      0.97051338	      0.92624086	      0.41548621	     25.66229379	     -1.44381213	     -8.18089888	     19.03559252	     19.03559252	      5.72768706	      4.99501345	      1.21178293	      9.67037879	     -4.97209563	    -12.67952363	     22.58820009	     22.58820009	     19.11745515	    -14.06693799	      2.22549438	    -10.17934180	      6.46929292	      1.28190989	    -14.32851676	    -11.62672792	    -17.62137783	     26.41257058	     46.97743979	      0.00000000	      0.00000000	     32.37699236	    -20.64961640	     -8.44122435	     64.73367466	     47.87540753	      0.00000000	      0.00000000
     23.10500000	     -5.03151951	     -5.03641064	     -9.33936399	      0.97030843	      0.92541101	      0.41788098	     25.28723126	     -1.47632294	     -8.86644629	     17.55822547	     17.55822547	      5.75693218	      7.52117036	      2.55028391	      8.99062114	     -4.75183161	    -13.14103298	     22.32539098	     22.32539098	     19.18184109	    -13.71041713	      1.32319874	    -10.20064061	      6.21939947	      1.26853751	    -15.22433305	    -11.53954877	    -17.78445873	     27.61268734	     46.91030507	      0.00000000	      0.00000000	     32.65398354	    -20.89632795	     -9.23685308	     66.45171686	     47.95401925	      0.00000000	      0.00000000
     23.12428571	     -4.99573226	     -4.80356699	     -9.47478386	      0.97031928	      0.92444913	      0.42056212	     24.90990325	     -1.29682584	     -8.89811010	     16.35037336	     16.35037336	      5.36513677	      8.47778663	      2.96646573	      8.45966419	     -4.61172687	    -13.34021654	     22.20409001	     22.20409001	     19.42112258	    -13.65850008	      1.05102854	    -10.01028703	      6.08687698	      1.29277554	    -15.52779390	    -11.48877992	    -17.79785041	     27.87862969	     46.89066992	      0.00000000	      0.00000000	     33.07977725	    -21.08387760	     -9.58398446	     67.08850628	     47.98950852	      0.00000000	      0.00000000
     23.14357143	     -4.87406379	     -4.56066278	     -9.60904898	      0.97068023	      0.92348817	      0.42339634	     24.56902095	     -1.25321744	     -9.08906347	     15.83914985	     15.83914985	      5.01052186	      9.39161356	      2.73065239	      7.78968074	     -4.46231551	    -13.61242037	     22.04391120	     22.04391120	     19.68362315	    -13.45445734	      0.69516972	     -9.90631720	      5.95218662	      1.37641166	    -15.71236703	    -11.48518846	    -17.82919659	     28.40289926	     46.85903859	      0.00000000	      0.00000000	     33.29526800	    -21.09588619	    -10.21916697	     68.02604565	     48.04652068	      0.00000000	      0.00000000
